<svg width="25" height="25" viewBox="0 0 25 25" fill="none" xmlns="http://www.w3.org/2000/svg">
<mask id="mask0_1_1547" style="mask-type:luminance" maskUnits="userSpaceOnUse" x="0" y="0" width="25" height="25">
<path d="M25 0H0V25H25V0Z" fill="white"/>
</mask>
<g mask="url(#mask0_1_1547)">
<path fill-rule="evenodd" clip-rule="evenodd" d="M0 12.5C0 22.794 2.206 25 12.5 25C22.794 25 25 22.794 25 12.5C25 2.206 22.794 0 12.5 0C2.206 0 0 2.206 0 12.5ZM2.083 12.5C2.03031 14.4586 2.18315 16.4173 2.539 18.344C2.70077 19.3835 3.1607 20.3537 3.863 21.137C4.64627 21.8393 5.6165 22.2992 6.656 22.461C8.5827 22.8169 10.5414 22.9697 12.5 22.917C14.4586 22.9697 16.4173 22.8169 18.344 22.461C19.3835 22.2993 20.3538 21.8393 21.137 21.137C21.8393 20.3538 22.2993 19.3835 22.461 18.344C22.8169 16.4173 22.9697 14.4586 22.917 12.5C22.9697 10.5414 22.8169 8.5827 22.461 6.656C22.2992 5.6165 21.8393 4.64627 21.137 3.863C20.3537 3.1607 19.3835 2.70077 18.344 2.539C16.4173 2.18315 14.4586 2.03031 12.5 2.083C10.5414 2.03031 8.58271 2.18314 6.656 2.539C5.6165 2.70077 4.64627 3.1607 3.863 3.863C3.1607 4.64627 2.70077 5.6165 2.539 6.656C2.18314 8.58271 2.03031 10.5414 2.083 12.5Z" fill="#80C341"/>
<path d="M11.4578 7.29205C11.4535 7.15256 11.4772 7.01363 11.5276 6.88349C11.578 6.75335 11.654 6.63467 11.7512 6.53447C11.8483 6.43427 11.9646 6.35461 12.0931 6.30021C12.2216 6.24581 12.3597 6.21777 12.4993 6.21777C12.6388 6.21777 12.777 6.24581 12.9055 6.30021C13.034 6.35461 13.1503 6.43427 13.2474 6.53447C13.3446 6.63467 13.4206 6.75335 13.471 6.88349C13.5214 7.01363 13.5451 7.15256 13.5408 7.29205V10.614L16.4408 8.94205C16.5593 8.86309 16.6927 8.80924 16.8328 8.78383C16.9728 8.75843 17.1167 8.762 17.2553 8.79433C17.394 8.82666 17.5245 8.88706 17.6389 8.97181C17.7533 9.05656 17.8492 9.16385 17.9205 9.28707C17.9918 9.41029 18.0371 9.54682 18.0537 9.68823C18.0702 9.82965 18.0575 9.97294 18.0165 10.1093C17.9755 10.2456 17.907 10.3721 17.8152 10.4809C17.7234 10.5898 17.6103 10.6786 17.4828 10.742L14.5348 12.442L17.4828 14.142C17.7033 14.289 17.8595 14.5144 17.9197 14.7725C17.9798 15.0305 17.9394 15.3018 17.8067 15.5311C17.6739 15.7605 17.4588 15.9306 17.2051 16.0069C16.9513 16.0833 16.678 16.0601 16.4408 15.942L13.5408 14.2701V17.696C13.5451 17.8355 13.5214 17.9745 13.471 18.1046C13.4206 18.2347 13.3446 18.3534 13.2474 18.4536C13.1503 18.5538 13.034 18.6335 12.9055 18.6879C12.777 18.7423 12.6388 18.7703 12.4993 18.7703C12.3597 18.7703 12.2216 18.7423 12.0931 18.6879C11.9646 18.6335 11.8483 18.5538 11.7512 18.4536C11.654 18.3534 11.578 18.2347 11.5276 18.1046C11.4772 17.9745 11.4535 17.8355 11.4578 17.696V14.222L8.45779 15.9541C8.33932 16.033 8.20592 16.0869 8.06583 16.1123C7.92574 16.1377 7.78193 16.1341 7.64328 16.1018C7.50462 16.0694 7.37406 16.009 7.25965 15.9243C7.14525 15.8395 7.04942 15.7322 6.97809 15.609C6.90676 15.4858 6.86144 15.3493 6.84493 15.2079C6.82841 15.0665 6.84105 14.9232 6.88206 14.7868C6.92308 14.6505 6.9916 14.524 7.0834 14.4152C7.17519 14.3063 7.28832 14.2175 7.41579 14.154L10.3638 12.4541L7.41579 10.754C7.28832 10.6906 7.17519 10.6018 7.0834 10.4929C6.9916 10.3841 6.92308 10.2576 6.88206 10.1213C6.84105 9.98494 6.82841 9.84165 6.84493 9.70023C6.86144 9.55882 6.90676 9.42229 6.97809 9.29907C7.04942 9.17585 7.14525 9.06856 7.25965 8.98381C7.37406 8.89906 7.50462 8.83866 7.64328 8.80633C7.78193 8.774 7.92574 8.77043 8.06583 8.79583C8.20592 8.82124 8.33932 8.87509 8.45779 8.95405L11.4578 10.686V7.29205Z" fill="#80C341"/>
</g>
</svg>
