<svg width="27" height="36" viewBox="0 0 27 36" fill="none" xmlns="http://www.w3.org/2000/svg">
<path d="M12.1128 35.2733C1.89996 20.4626 0 18.9426 0 13.4997C0 9.91938 1.42229 6.48567 3.95398 3.95398C6.48567 1.42229 9.91938 0 13.4997 0C17.0801 0 20.5138 1.42229 23.0455 3.95398C25.5772 6.48567 26.9995 9.91938 26.9995 13.4997C26.9995 18.9426 25.0995 20.4626 14.8867 35.2733C14.7313 35.4975 14.524 35.6807 14.2823 35.8073C14.0407 35.9338 13.772 35.9999 13.4992 35.9999C13.2265 35.9999 12.9577 35.9338 12.7161 35.8073C12.4745 35.6807 12.2681 35.4975 12.1128 35.2733ZM13.4997 19.1246C14.6122 19.1246 15.6997 18.7947 16.6247 18.1766C17.5498 17.5586 18.2707 16.6801 18.6964 15.6523C19.1222 14.6245 19.2336 13.4935 19.0165 12.4024C18.7995 11.3112 18.2638 10.309 17.4771 9.52233C16.6905 8.73568 15.6882 8.19996 14.5971 7.98292C13.506 7.76588 12.375 7.87727 11.3472 8.30301C10.3194 8.72874 9.44087 9.4497 8.8228 10.3747C8.20473 11.2997 7.87484 12.3872 7.87484 13.4997C7.87484 14.9915 8.46746 16.4223 9.52233 17.4771C10.5772 18.532 12.0079 19.1246 13.4997 19.1246Z" fill="#F21905"/>
</svg>
