<svg width="10" height="6" viewBox="0 0 10 6" fill="none" xmlns="http://www.w3.org/2000/svg">
<path d="M5.00212 3.99435L8.78354 0.209805C8.84966 0.143313 8.92828 0.090547 9.01486 0.0545411C9.10145 0.0185352 9.1943 0 9.28808 0C9.38185 0 9.4747 0.0185352 9.56129 0.0545411C9.64787 0.090547 9.72649 0.143313 9.79261 0.209805C9.92558 0.344693 10.0001 0.526493 10.0001 0.715901C10.0001 0.905309 9.92558 1.08711 9.79261 1.222L5.5077 5.51003C5.37765 5.63949 5.20274 5.71388 5.01929 5.71775C4.83584 5.72163 4.65794 5.65469 4.52255 5.53084L0.204347 1.22512C0.0726441 1.09078 -0.000779242 0.909935 6.23793e-06 0.72181C0.000791718 0.533685 0.0757225 0.353456 0.208543 0.220225C0.341363 0.0869937 0.52136 0.0115065 0.709482 0.0101401C0.897604 0.00877373 1.07868 0.0816384 1.21342 0.212926L5.00212 3.99435Z" fill="black"/>
</svg>
