<svg width="12" height="12" viewBox="0 0 12 12" fill="none" xmlns="http://www.w3.org/2000/svg">
<path d="M9.35301 5.23188L10.7938 3.79114C10.9727 3.61206 11.0733 3.36923 11.0733 3.11605C11.0733 2.86286 10.9727 2.62004 10.7938 2.44096L9.55883 1.20603C9.47023 1.11729 9.365 1.04689 9.24916 0.998852C9.13332 0.950817 9.00914 0.926092 8.88374 0.926092C8.75834 0.926092 8.63416 0.950817 8.51832 0.998852C8.40249 1.04689 8.29725 1.11729 8.20865 1.20603L6.0002 3.41449L3.79071 1.20603C3.70211 1.11729 3.59688 1.04689 3.48104 0.998852C3.3652 0.950817 3.24102 0.926092 3.11562 0.926092C2.99022 0.926092 2.86604 0.950817 2.7502 0.998852C2.63437 1.04689 2.52913 1.11729 2.44053 1.20603L1.20561 2.44096C1.02663 2.62004 0.926092 2.86286 0.926092 3.11605C0.926092 3.36923 1.02663 3.61206 1.20561 3.79114L3.41921 5.99959L1.20561 8.20908C1.02663 8.38816 0.926092 8.63098 0.926092 8.88417C0.926092 9.13735 1.02663 9.38018 1.20561 9.55926L2.44053 10.7942C2.61961 10.9732 2.86244 11.0737 3.11562 11.0737C3.36881 11.0737 3.61163 10.9732 3.79071 10.7942L5.99917 8.58573L8.20762 10.7942C8.3867 10.9732 8.62953 11.0737 8.88271 11.0737C9.1359 11.0737 9.37872 10.9732 9.5578 10.7942L10.7927 9.55926C10.9717 9.38018 11.0722 9.13735 11.0722 8.88417C11.0722 8.63098 10.9717 8.38816 10.7927 8.20908L8.5853 5.99959L9.35301 5.23188Z" stroke="#80C341" stroke-width="1.8" stroke-miterlimit="10" stroke-linecap="round" stroke-linejoin="round"/>
</svg>
