<svg width="360" height="38" viewBox="0 0 360 38" fill="none" xmlns="http://www.w3.org/2000/svg">
<path d="M354.074 37.5H5.92591C4.44168 37.5 3.05291 37.1143 2.01541 36.414C1.03818 35.7544 0.5 34.897 0.5 34V4C0.5 3.10295 1.03818 2.24564 2.01541 1.586C3.05291 0.885682 4.44168 0.5 5.92591 0.5H354.074C355.558 0.5 356.947 0.885682 357.985 1.586C358.962 2.24564 359.5 3.10295 359.5 4V34C359.5 34.897 358.962 35.7544 357.985 36.414C356.947 37.1143 355.558 37.5 354.074 37.5Z" fill="white"/>
<path d="M5.9259 1C3.25577 1 1 2.37382 1 4V34C1 35.6262 3.25577 37 5.9259 37H354.074C356.744 37 359 35.6262 359 34V4C359 2.37382 356.744 1 354.074 1H5.9259ZM5.9259 0H354.074C357.347 0 360 1.79086 360 4V34C360 36.2091 357.347 38 354.074 38H5.9259C2.65314 38 0 36.2091 0 34V4C0 1.79086 2.65314 0 5.9259 0Z" fill="#E2E2E2"/>
</svg>
