<svg width="13" height="16" viewBox="0 0 13 16" fill="none" xmlns="http://www.w3.org/2000/svg">
<path d="M6.40021 3.20061V0L2.39995 4.00026L6.40021 8.00051V4.7999C7.34954 4.7999 8.27755 5.08141 9.06689 5.60883C9.85623 6.13625 10.4714 6.88589 10.8347 7.76296C11.198 8.64003 11.2931 9.60512 11.1079 10.5362C10.9227 11.4673 10.4655 12.3226 9.79425 12.9938C9.12297 13.6651 8.26771 14.1223 7.33662 14.3075C6.40553 14.4927 5.44043 14.3976 4.56336 14.0343C3.6863 13.671 2.93666 13.0558 2.40924 12.2665C1.88182 11.4771 1.60031 10.5491 1.60031 9.5998H0C0 10.8656 0.375366 12.1031 1.07863 13.1556C1.78189 14.2081 2.78147 15.0284 3.95095 15.5128C5.12044 15.9972 6.40731 16.124 7.64883 15.877C8.89034 15.6301 10.0308 15.0205 10.9258 14.1254C11.8209 13.2303 12.4305 12.0899 12.6774 10.8484C12.9244 9.6069 12.7976 8.32003 12.3132 7.15055C11.8288 5.98106 11.0085 4.98149 9.95597 4.27822C8.90346 3.57496 7.66605 3.20061 6.40021 3.20061Z" fill="white"/>
</svg>
