<svg width="29" height="29" viewBox="0 0 29 29" fill="none" xmlns="http://www.w3.org/2000/svg">
<path d="M28.9998 14.4999C28.9998 17.3677 28.1494 20.171 26.5562 22.5555C24.963 24.94 22.6985 26.7985 20.049 27.896C17.3996 28.9935 14.4842 29.2807 11.6715 28.7213C8.85881 28.1619 6.27517 26.781 4.24728 24.7532C2.2194 22.7255 0.838335 20.1419 0.27874 17.3293C-0.280855 14.5167 0.00614877 11.6013 1.10346 8.95172C2.20077 6.3022 4.0591 4.03755 6.44347 2.44416C8.82783 0.850771 11.6311 0.000198153 14.4989 3.46049e-08C16.4031 -0.000131519 18.2888 0.374822 20.0481 1.10345C21.8074 1.83208 23.406 2.90012 24.7525 4.24657C26.0991 5.59302 27.1672 7.19152 27.896 8.9508C28.6247 10.7101 28.9998 12.5957 28.9998 14.4999Z" fill="#80C341"/>
<path d="M17.7965 14.0442C18.7182 13.3524 19.3988 12.3882 19.742 11.2881C20.0853 10.1881 20.0738 9.00793 19.7092 7.91478C19.3445 6.82162 18.6452 5.87088 17.7103 5.19717C16.7754 4.52347 15.6522 4.16095 14.4999 4.16095C13.3475 4.16095 12.2244 4.52347 11.2894 5.19717C10.3545 5.87088 9.65525 6.82162 9.29061 7.91478C8.92598 9.00793 8.91448 10.1881 9.25774 11.2881C9.60099 12.3882 10.2816 13.3524 11.2032 14.0442C9.40917 14.7179 7.86316 15.9226 6.77141 17.4975C5.67966 19.0725 5.09407 20.9429 5.09273 22.8593H6.79565C6.86402 20.8605 7.70613 18.9663 9.14434 17.5765C10.5825 16.1866 12.5044 15.4097 14.5044 15.4097C16.5044 15.4097 18.4263 16.1866 19.8645 17.5765C21.3027 18.9663 22.1448 20.8605 22.2131 22.8593H23.9161C23.9146 20.943 23.3289 19.0726 22.2372 17.4977C21.1455 15.9227 19.5995 14.718 17.8056 14.0442H17.7965ZM10.7074 9.65564C10.7074 8.90556 10.9298 8.17231 11.3465 7.54863C11.7633 6.92496 12.3556 6.43886 13.0486 6.15182C13.7415 5.86477 14.5041 5.78966 15.2398 5.936C15.9754 6.08233 16.6512 6.44354 17.1816 6.97393C17.712 7.50432 18.0732 8.18008 18.2195 8.91576C18.3659 9.65143 18.2908 10.414 18.0037 11.107C17.7167 11.8 17.2306 12.3923 16.6069 12.809C15.9832 13.2257 15.25 13.4482 14.4999 13.4482C13.4942 13.4471 12.53 13.047 11.819 12.3358C11.108 11.6246 10.7082 10.6613 10.7074 9.65564Z" fill="white"/>
</svg>
