<svg width="16" height="16" viewBox="0 0 16 16" fill="none" xmlns="http://www.w3.org/2000/svg">
<path d="M0 12.6671V15.9997H3.33263L13.1618 6.17054L9.82917 2.83791L0 12.6671ZM15.7398 3.59361C15.8222 3.51144 15.8875 3.41382 15.9321 3.30634C15.9768 3.19886 15.9997 3.08364 15.9997 2.96727C15.9997 2.8509 15.9768 2.73568 15.9321 2.6282C15.8875 2.52072 15.8222 2.4231 15.7398 2.34093L13.6598 0.25995C13.5776 0.177551 13.48 0.112175 13.3725 0.0675682C13.2651 0.0229613 13.1498 0 13.0335 0C12.9171 0 12.8019 0.0229613 12.6944 0.0675682C12.5869 0.112175 12.4893 0.177551 12.4071 0.25995L10.7812 1.88587L14.1118 5.21953L15.7377 3.59361H15.7398Z" fill="black"/>
</svg>
