<svg width="117" height="22" viewBox="0 0 117 22" fill="none" xmlns="http://www.w3.org/2000/svg">
<mask id="mask0_1_1430" style="mask-type:luminance" maskUnits="userSpaceOnUse" x="0" y="-7" width="117" height="35">
<path d="M117 -6.46606H0V27.5339H117V-6.46606Z" fill="white"/>
</mask>
<g mask="url(#mask0_1_1430)">
<path fill-rule="evenodd" clip-rule="evenodd" d="M10.82 6.82594C10.8197 6.43085 10.6627 6.05201 10.3833 5.77264C10.1039 5.49327 9.72509 5.3362 9.33 5.33594H1.49C1.09483 5.33594 0.71584 5.49292 0.436411 5.77235C0.156982 6.05178 3.35601e-07 6.43076 3.35601e-07 6.82594C-0.00013103 7.02174 0.0383048 7.21565 0.113113 7.39659C0.187922 7.57754 0.297638 7.74198 0.435997 7.88053C0.574356 8.01907 0.738649 8.12901 0.919495 8.20406C1.10034 8.27911 1.2942 8.31781 1.49 8.31794H9.33C9.72509 8.31767 10.1039 8.16061 10.3833 7.88123C10.6627 7.60186 10.8197 7.22303 10.82 6.82794V6.82594Z" fill="#80C341"/>
<path d="M81.958 21.023C80.6614 21.3965 79.2907 21.4309 77.977 21.123C76.7461 20.8243 75.6243 20.1849 74.74 19.278C73.7958 18.2955 73.1273 17.0813 72.802 15.758C72.4177 14.4231 72.3771 13.0128 72.684 11.658C72.9715 10.4063 73.6041 9.26033 74.51 8.35001C75.4988 7.38888 76.7276 6.71094 78.068 6.38701C79.3287 6.02203 80.6636 5.99719 81.937 6.31501C83.122 6.61858 84.2011 7.24113 85.057 8.11501C85.9364 9.0152 86.5628 10.1314 86.873 11.351C86.9283 11.557 86.9813 11.7737 87.032 12.001C87.0827 12.2283 87.1313 12.4663 87.178 12.715L76.578 15.556C76.7179 16.0338 76.9512 16.4791 77.2645 16.866C77.5778 17.2529 77.9648 17.5738 78.403 17.81C79.2484 18.2451 80.2287 18.3385 81.141 18.071C81.7963 17.9194 82.3915 17.5762 82.851 17.085C83.2509 16.6425 83.5172 16.0957 83.619 15.508L87.275 14.528C87.2479 15.4824 87.0221 16.4208 86.612 17.283C86.1909 18.1726 85.5783 18.958 84.818 19.583C83.9817 20.2626 83.0064 20.7504 81.961 21.012L81.958 21.023ZM116.699 10.656H113.176C112.963 9.58934 112.157 9.05601 110.76 9.05601C110.192 9.02104 109.627 9.16362 109.144 9.46401C108.972 9.57263 108.829 9.72288 108.73 9.90094C108.631 10.079 108.578 10.2792 108.576 10.483C108.576 10.9103 108.857 11.25 109.42 11.502C110.143 11.8058 110.894 12.0402 111.662 12.202C112.671 12.4347 113.598 12.6917 114.442 12.973C115.213 13.2088 115.91 13.6401 116.465 14.225C117.008 14.8918 117.279 15.7397 117.222 16.598C117.251 17.4572 117.006 18.3032 116.522 19.014C115.997 19.765 115.268 20.3508 114.422 20.703C113.4 21.132 112.298 21.3403 111.19 21.314C110.033 21.3377 108.884 21.1246 107.813 20.688C106.903 20.3162 106.102 19.7204 105.484 18.956C104.901 18.2172 104.538 17.3294 104.436 16.394H108.192C108.321 16.976 108.66 17.4899 109.145 17.837C109.723 18.2561 110.426 18.4676 111.139 18.437C111.776 18.4903 112.41 18.3148 112.929 17.942C113.102 17.807 113.243 17.6351 113.341 17.4387C113.44 17.2424 113.493 17.0265 113.497 16.807C113.517 16.5361 113.449 16.266 113.301 16.0375C113.154 15.8091 112.937 15.6348 112.682 15.541C111.944 15.2606 111.185 15.0415 110.411 14.886C109.79 14.7527 109.159 14.5877 108.519 14.391C107.907 14.2089 107.316 13.96 106.758 13.649C106.241 13.3654 105.796 12.9668 105.458 12.484C105.115 11.9625 104.942 11.3471 104.963 10.723C104.957 10.1038 105.091 9.4912 105.355 8.93136C105.62 8.37153 106.008 7.87905 106.491 7.49101C107.717 6.55018 109.242 6.08487 110.785 6.18101C112.244 6.10566 113.686 6.5265 114.875 7.37501C115.383 7.77423 115.805 8.27098 116.118 8.83602C116.43 9.40105 116.626 10.0229 116.695 10.665L116.699 10.656ZM62.956 18.051H71.981V20.962H59.229V0.583008H62.956V18.051ZM92.566 20.962H88.839V6.52201H92.129L92.42 8.96701C92.8606 8.11897 93.5317 7.41255 94.356 6.92901C95.2625 6.4081 96.2948 6.14624 97.34 6.17201C98.1156 6.12805 98.8914 6.25674 99.6113 6.54882C100.331 6.84089 100.977 7.28905 101.503 7.86101C102.586 9.27382 103.114 11.0343 102.988 12.81V20.962H99.261V13.162C99.327 12.1539 99.0611 11.1518 98.504 10.309C98.219 9.96724 97.856 9.69893 97.4457 9.52665C97.0353 9.35437 96.5896 9.28316 96.146 9.31901C95.6618 9.30438 95.1803 9.3958 94.7351 9.58685C94.29 9.7779 93.892 10.064 93.569 10.425C92.857 11.29 92.4997 12.3928 92.569 13.511V20.964L92.566 20.962ZM78.851 9.31701C78.0088 9.52822 77.2592 10.0098 76.717 10.688C76.1558 11.4348 75.9092 12.3717 76.03 13.298L82.976 11.437C82.855 11.0242 82.6506 10.6406 82.3754 10.31C82.1002 9.97942 81.76 9.70883 81.376 9.51501C80.5889 9.13477 79.6877 9.0641 78.851 9.31701Z" fill="#80C341"/>
<path d="M31.8201 20.984H28.2531L28.3011 18.917C27.832 19.5861 27.2393 20.1594 26.5551 20.606C25.7091 21.1245 24.7273 21.378 23.7361 21.334C22.5175 21.3525 21.321 21.0079 20.2991 20.344C19.2769 19.6684 18.4517 18.7345 17.9071 17.637C17.3053 16.4263 17.0035 15.0887 17.0271 13.737C17.0023 12.3896 17.3042 11.0563 17.9071 9.851C18.4524 8.76176 19.2781 7.83742 20.2991 7.173C21.3452 6.56606 22.527 6.2315 23.7361 6.2C24.595 6.17646 25.452 6.2954 26.2721 6.552C27.3541 6.86861 28.3267 7.48008 29.0811 8.318L29.5811 6.549H31.8161L31.8201 20.984ZM5.73506 20.962H2.00806V10.044H9.31606C10.329 10.1388 11.3384 9.83014 12.1251 9.185C12.419 8.87278 12.6464 8.50411 12.7935 8.10136C12.9407 7.6986 13.0045 7.27015 12.9811 6.842C13.0058 6.40893 12.9424 5.97533 12.7948 5.56745C12.6471 5.15957 12.4183 4.78589 12.1221 4.469C11.3362 3.82462 10.328 3.51598 9.31606 3.61H2.00806V0.582H9.54906C10.9433 0.532196 12.3297 0.811397 13.5961 1.397C14.6015 1.88299 15.4339 2.66546 15.9811 3.639C16.5125 4.62086 16.7831 5.72266 16.7671 6.839C16.7781 7.91939 16.5178 8.98528 16.0101 9.939C15.4696 10.9154 14.6481 11.7066 13.6521 12.21C12.3765 12.8281 10.9685 13.1231 9.55206 13.069H5.73506V20.959V20.962ZM42.4011 10.1H41.3531C40.6081 10.0875 39.8675 10.2158 39.1701 10.478C38.533 10.727 38.0026 11.1902 37.6701 11.788C37.2703 12.5908 37.085 13.4834 37.1321 14.379V20.959H33.4051V6.521H36.7241L37.0731 9.229C37.5812 8.3131 38.3186 7.54499 39.2131 7C40.1771 6.43032 41.2816 6.14274 42.4011 6.17V10.1ZM47.4961 20.959H43.7701V0H47.4961V12.373L52.6201 6.521H57.0451L51.1351 13.101L58.0061 20.962H53.3481L47.4961 13.713V20.959ZM24.4811 18.073C25.0064 18.0887 25.5287 17.9886 26.0111 17.7798C26.4934 17.571 26.9239 17.2587 27.2721 16.865C28.0152 16.0074 28.4035 14.8988 28.3581 13.765C28.4035 12.6312 28.0152 11.5226 27.2721 10.665C26.9153 10.2849 26.4846 9.98163 26.0064 9.77388C25.5282 9.56613 25.0126 9.45824 24.4913 9.45684C23.9699 9.45543 23.4538 9.56054 22.9745 9.76571C22.4952 9.97088 22.0629 10.2718 21.7041 10.65C20.9514 11.4973 20.5571 12.6037 20.6041 13.736C20.5607 14.8765 20.9541 15.9906 21.7041 16.851C22.049 17.2459 22.4766 17.56 22.9565 17.7712C23.4364 17.9824 23.9569 18.0854 24.4811 18.073Z" fill="white"/>
</g>
</svg>
