<svg width="19" height="19" viewBox="0 0 19 19" fill="none" xmlns="http://www.w3.org/2000/svg">
<path d="M12.823 9.97598C13.7533 9.27769 14.4403 8.30445 14.7868 7.19407C15.1333 6.0837 15.1217 4.89246 14.7536 3.78905C14.3855 2.68564 13.6797 1.72597 12.736 1.04594C11.7923 0.365919 10.6586 0 9.49544 0C8.33226 0 7.19856 0.365919 6.25487 1.04594C5.31118 1.72597 4.60534 2.68564 4.23728 3.78905C3.86922 4.89246 3.85761 6.0837 4.20409 7.19407C4.55057 8.30445 5.23758 9.27769 6.16784 9.97598C4.35695 10.656 2.79643 11.872 1.69443 13.4618C0.592437 15.0515 0.00134795 16.9395 0 18.8738H1.7189C1.78791 16.8562 2.63793 14.9443 4.08963 13.5414C5.54133 12.1385 7.48119 11.3544 9.49999 11.3544C11.5188 11.3544 13.4587 12.1385 14.9104 13.5414C16.3621 14.9443 17.2121 16.8562 17.2811 18.8738H19C18.9985 16.9395 18.4073 15.0516 17.3054 13.4619C16.2034 11.8721 14.643 10.6561 12.8321 9.97598H12.823ZM5.66734 5.54626C5.66734 4.78913 5.89185 4.049 6.31249 3.41947C6.73313 2.78994 7.331 2.29929 8.03049 2.00955C8.72999 1.71981 9.49969 1.64399 10.2423 1.7917C10.9849 1.93941 11.667 2.304 12.2023 2.83937C12.7377 3.37474 13.1023 4.05685 13.25 4.79943C13.3977 5.54201 13.3219 6.31171 13.0322 7.01121C12.7424 7.7107 12.2518 8.30857 11.6222 8.72921C10.9927 9.14985 10.2526 9.37436 9.49544 9.37436C8.48032 9.37329 7.5071 8.96949 6.78939 8.2516C6.07169 7.5337 5.66814 6.56138 5.66734 5.54626Z" fill="white"/>
</svg>
