<svg width="17" height="22" viewBox="0 0 17 22" fill="none" xmlns="http://www.w3.org/2000/svg">
<path d="M7.4323 21.5527C1.16397 12.4651 0 11.5274 0 8.19249C0.0241938 6.01139 0.907609 3.92783 2.45851 2.39404C4.00941 0.860251 6.10263 0 8.28387 0C10.4651 0 12.5583 0.860251 14.1092 2.39404C15.6601 3.92783 16.5435 6.01139 16.5677 8.19249C16.5677 11.5325 15.4038 12.4651 9.13545 21.5537C9.04017 21.6914 8.91291 21.804 8.7646 21.8817C8.61628 21.9594 8.45132 22 8.28387 22C8.11642 22 7.95146 21.9594 7.80315 21.8817C7.65483 21.804 7.52758 21.6904 7.4323 21.5527ZM8.28336 11.6436C8.96593 11.6436 9.63318 11.4412 10.2007 11.062C10.7683 10.6828 11.2106 10.1438 11.4718 9.51319C11.733 8.88257 11.8014 8.18866 11.6682 7.51921C11.535 6.84975 11.2063 6.23481 10.7237 5.75216C10.241 5.26951 9.6261 4.94082 8.95665 4.80766C8.28719 4.6745 7.59328 4.74284 6.96266 5.00405C6.33205 5.26526 5.79306 5.7076 5.41384 6.27514C5.03462 6.84268 4.83222 7.50992 4.83222 8.19249C4.83222 8.64579 4.92152 9.09464 5.09502 9.51342C5.26852 9.9322 5.52282 10.3127 5.84339 10.6332C6.16397 10.9537 6.54454 11.2079 6.96337 11.3812C7.3822 11.5546 7.83108 11.6438 8.28438 11.6436H8.28336Z" fill="#F21905"/>
</svg>
