<svg width="21" height="17" viewBox="0 0 21 17" fill="none" xmlns="http://www.w3.org/2000/svg">
<path d="M3.06184 8.31291C3.06184 8.6157 2.97205 8.91169 2.80383 9.16345C2.63562 9.41521 2.39652 9.61143 2.11678 9.7273C1.83704 9.84317 1.52922 9.87349 1.23225 9.81442C0.935284 9.75535 0.6625 9.60954 0.448397 9.39544C0.234294 9.18134 0.0884879 8.90855 0.0294169 8.61158C-0.029654 8.31461 0.000663182 8.0068 0.116535 7.72706C0.232407 7.44732 0.428629 7.20822 0.680387 7.04C0.932146 6.87178 1.22813 6.78199 1.53092 6.78199C1.73196 6.78199 1.93104 6.82159 2.11678 6.89853C2.30252 6.97546 2.47129 7.08823 2.61345 7.23039C2.7556 7.37255 2.86837 7.54132 2.94531 7.72706C3.02224 7.9128 3.06184 8.11187 3.06184 8.31291Z" fill="black"/>
<path d="M3.06184 1.53092C3.06184 1.83366 2.97208 2.12961 2.80391 2.38135C2.63573 2.63309 2.39669 2.82931 2.11701 2.94521C1.83733 3.06111 1.52957 3.09149 1.23263 3.0325C0.935685 2.97351 0.6629 2.82781 0.448756 2.6138C0.234613 2.3998 0.0887265 2.12711 0.0295409 1.83021C-0.0296447 1.53331 0.000527722 1.22552 0.116244 0.945767C0.23196 0.66601 0.428024 0.426842 0.679649 0.258501C0.931274 0.0901589 1.22716 0.000201229 1.52991 3.37085e-07C1.73103 -0.000133126 1.93022 0.0393666 2.11608 0.116243C2.30193 0.193119 2.47082 0.305865 2.61309 0.448037C2.75535 0.59021 2.86821 0.759022 2.94521 0.944828C3.02221 1.13063 3.06184 1.32979 3.06184 1.53092Z" fill="black"/>
<path d="M3.06184 15.0939C3.06184 15.3967 2.97208 15.6926 2.80391 15.9443C2.63573 16.1961 2.39669 16.3923 2.11701 16.5082C1.83733 16.6241 1.52957 16.6545 1.23263 16.5955C0.935685 16.5365 0.6629 16.3908 0.448756 16.1768C0.234613 15.9628 0.0887265 15.6901 0.0295409 15.3932C-0.0296447 15.0963 0.000527722 14.7885 0.116244 14.5088C0.23196 14.229 0.428024 13.9898 0.679649 13.8215C0.931274 13.6532 1.22716 13.5632 1.52991 13.563C1.93593 13.563 2.32533 13.7243 2.61243 14.0114C2.89953 14.2985 3.06184 14.6879 3.06184 15.0939Z" fill="black"/>
<path d="M20.1249 7.43725H6.9714C6.73929 7.43725 6.51669 7.52946 6.35256 7.69358C6.18844 7.85771 6.09623 8.08032 6.09623 8.31243C6.09623 8.54454 6.18844 8.76714 6.35256 8.93127C6.51669 9.0954 6.73929 9.1876 6.9714 9.1876H20.1249C20.357 9.1876 20.5796 9.0954 20.7438 8.93127C20.9079 8.76714 21.0001 8.54454 21.0001 8.31243C21.0001 8.08032 20.9079 7.85771 20.7438 7.69358C20.5796 7.52946 20.357 7.43725 20.1249 7.43725Z" fill="black"/>
<path d="M20.1249 14.2192H6.9714C6.73929 14.2192 6.51669 14.3115 6.35256 14.4756C6.18844 14.6397 6.09623 14.8623 6.09623 15.0944C6.09623 15.3265 6.18844 15.5491 6.35256 15.7133C6.51669 15.8774 6.73929 15.9696 6.9714 15.9696H20.1249C20.357 15.9696 20.5796 15.8774 20.7438 15.7133C20.9079 15.5491 21.0001 15.3265 21.0001 15.0944C21.0001 14.8623 20.9079 14.6397 20.7438 14.4756C20.5796 14.3115 20.357 14.2192 20.1249 14.2192Z" fill="black"/>
<path d="M6.9714 2.4066H20.1249C20.357 2.4066 20.5796 2.31439 20.7438 2.15027C20.9079 1.98614 21.0001 1.76354 21.0001 1.53142C21.0001 1.29931 20.9079 1.07671 20.7438 0.912582C20.5796 0.748455 20.357 0.65625 20.1249 0.65625H6.9714C6.73929 0.65625 6.51669 0.748455 6.35256 0.912582C6.18844 1.07671 6.09623 1.29931 6.09623 1.53142C6.09623 1.76354 6.18844 1.98614 6.35256 2.15027C6.51669 2.31439 6.73929 2.4066 6.9714 2.4066Z" fill="black"/>
</svg>
