<svg width="258" height="38" viewBox="0 0 258 38" fill="none" xmlns="http://www.w3.org/2000/svg">
<path d="M253.753 37.5H4.2469C2.18087 37.5 0.5 35.9299 0.5 34V4C0.5 2.0701 2.18087 0.5 4.2469 0.5H253.753C255.819 0.5 257.5 2.0701 257.5 4V34C257.5 35.9299 255.819 37.5 253.753 37.5Z" fill="white"/>
<path d="M4.2469 1C2.45657 1 1 2.3458 1 4V34C1 35.6542 2.45657 37 4.2469 37H253.753C255.543 37 257 35.6542 257 34V4C257 2.3458 255.543 1 253.753 1H4.2469ZM4.2469 0H253.753C256.099 0 258 1.79087 258 4V34C258 36.2091 256.099 38 253.753 38H4.2469C1.9014 38 0 36.2091 0 34V4C0 1.79087 1.9014 0 4.2469 0Z" fill="#E2E2E2"/>
</svg>
