<svg width="22" height="14" viewBox="0 0 22 14" fill="none" xmlns="http://www.w3.org/2000/svg">
<path fill-rule="evenodd" clip-rule="evenodd" d="M10.3989 1.52643C9.03549 1.52666 7.72127 2.03582 6.71359 2.95421C5.70591 3.8726 5.07734 5.13407 4.95097 6.49161C4.93338 6.68453 4.84423 6.86389 4.70107 6.9944C4.5579 7.12491 4.37108 7.19713 4.17736 7.19684C3.47789 7.20106 2.80802 7.47961 2.3118 7.97259C1.81557 8.46557 1.53263 9.1336 1.52382 9.83303C1.52382 10.5322 1.80156 11.2027 2.29594 11.6971C2.79032 12.1915 3.46085 12.4692 4.16001 12.4692H4.84278C5.04579 12.4692 5.24049 12.5499 5.38403 12.6934C5.52758 12.837 5.60823 13.0316 5.60823 13.2347C5.60823 13.4377 5.52758 13.6324 5.38403 13.7759C5.24049 13.9195 5.04579 14.0001 4.84278 14.0001H4.16205C3.11393 13.9991 2.1047 13.603 1.33562 12.8909C0.566548 12.1788 0.0941474 11.203 0.0126275 10.1581C-0.0688924 9.11312 0.246459 8.07584 0.895794 7.25309C1.54513 6.43033 2.48073 5.88256 3.51601 5.71902C3.77689 4.3215 4.45685 3.03645 5.46555 2.03463C6.47424 1.03281 7.76391 0.361642 9.16317 0.110321C10.5624 -0.141001 12.0051 0.0394207 13.2993 0.627611C14.5936 1.2158 15.6783 2.18391 16.4092 3.4033C17.1217 3.38099 17.8315 3.50102 18.4971 3.75635C19.1627 4.01168 19.7707 4.39719 20.2855 4.89032C20.8003 5.38345 21.2115 5.97431 21.4952 6.6283C21.7789 7.2823 21.9294 7.98631 21.9377 8.69915C21.9366 10.0133 21.4479 11.2803 20.5663 12.2548C19.6847 13.2294 18.4729 13.8422 17.1654 13.9746C17.0654 13.9845 16.9643 13.9746 16.8681 13.9455C16.7719 13.9164 16.6823 13.8686 16.6046 13.8048C16.4475 13.6761 16.348 13.4903 16.328 13.2882C16.308 13.0862 16.369 12.8844 16.4978 12.7274C16.6265 12.5704 16.8123 12.4709 17.0144 12.4508C17.9437 12.3559 18.8049 11.9198 19.4315 11.2269C20.0581 10.534 20.4056 9.63336 20.4068 8.69915C20.3984 8.16093 20.2765 7.63056 20.049 7.14273C19.8215 6.65489 19.4935 6.2206 19.0865 5.86828C18.6796 5.51595 18.2028 5.25353 17.6874 5.09819C17.1721 4.94285 16.6297 4.89809 16.0958 4.96684C15.9349 4.98994 15.7707 4.96187 15.6266 4.8866C15.4825 4.81133 15.3656 4.69266 15.2926 4.54738C14.8377 3.63922 14.139 2.87561 13.2747 2.34207C12.4104 1.80852 11.4146 1.5261 10.3989 1.52643Z" fill="white"/>
</svg>
