<svg width="16" height="16" viewBox="0 0 16 16" fill="none" xmlns="http://www.w3.org/2000/svg">
<mask id="mask0_1_1445" style="mask-type:luminance" maskUnits="userSpaceOnUse" x="0" y="0" width="16" height="16">
<path d="M16 0H0V16H16V0Z" fill="white"/>
</mask>
<g mask="url(#mask0_1_1445)">
<path d="M14.589 16H9.98205C9.60799 15.9994 9.2494 15.8506 8.9849 15.5861C8.7204 15.3216 8.57157 14.963 8.57104 14.589V8.83898C8.57157 8.46492 8.7204 8.10633 8.9849 7.84184C9.2494 7.57734 9.60799 7.42851 9.98205 7.42798H14.589C14.9631 7.42851 15.3217 7.57734 15.5862 7.84184C15.8507 8.10633 15.9995 8.46492 16 8.83898V14.589C15.9995 14.963 15.8507 15.3216 15.5862 15.5861C15.3217 15.8506 14.9631 15.9994 14.589 16ZM9.98205 8.57098C9.91097 8.57098 9.8428 8.59921 9.79254 8.64947C9.74228 8.69973 9.71405 8.7679 9.71405 8.83898V14.589C9.71405 14.6601 9.74228 14.7282 9.79254 14.7785C9.8428 14.8287 9.91097 14.857 9.98205 14.857H14.589C14.6601 14.857 14.7283 14.8287 14.7786 14.7785C14.8288 14.7282 14.857 14.6601 14.857 14.589V8.83898C14.857 8.7679 14.8288 8.69973 14.7786 8.64947C14.7283 8.59921 14.6601 8.57098 14.589 8.57098H9.98205Z" fill="#80C341"/>
<path d="M14.589 6.286H9.98205C9.60799 6.28547 9.2494 6.13664 8.9849 5.87214C8.7204 5.60764 8.57157 5.24906 8.57104 4.875V1.411C8.57157 1.03694 8.7204 0.678356 8.9849 0.413857C9.2494 0.149358 9.60799 0.000529079 9.98205 0H14.589C14.9631 0.000529079 15.3217 0.149358 15.5862 0.413857C15.8507 0.678356 15.9995 1.03694 16 1.411V4.875C15.9995 5.24906 15.8507 5.60764 15.5862 5.87214C15.3217 6.13664 14.9631 6.28547 14.589 6.286ZM9.98205 1.143C9.91097 1.143 9.8428 1.17124 9.79254 1.2215C9.74228 1.27175 9.71405 1.33992 9.71405 1.411V4.875C9.71405 4.94608 9.74228 5.01425 9.79254 5.0645C9.8428 5.11476 9.91097 5.143 9.98205 5.143H14.589C14.6601 5.143 14.7283 5.11476 14.7786 5.0645C14.8288 5.01425 14.857 4.94608 14.857 4.875V1.411C14.857 1.37581 14.8501 1.34096 14.8366 1.30844C14.8232 1.27593 14.8034 1.24638 14.7786 1.2215C14.7537 1.19661 14.7241 1.17687 14.6916 1.1634C14.6591 1.14993 14.6242 1.143 14.589 1.143H9.98205Z" fill="#80C341"/>
<path d="M6.018 8.571H1.411C1.03642 8.57047 0.677383 8.42123 0.412798 8.15608C0.148212 7.89093 -0.000265114 7.53158 3.5537e-07 7.157V1.411C0.000529434 1.03694 0.149358 0.678356 0.413857 0.413857C0.678356 0.149358 1.03694 0.000529079 1.411 0H6.018C6.39188 0.000793439 6.75021 0.149738 7.0145 0.414209C7.27878 0.67868 7.42747 1.03711 7.428 1.411V7.157C7.42827 7.5314 7.27993 7.89061 7.01556 8.15573C6.75119 8.42085 6.3924 8.57021 6.018 8.571ZM1.411 1.143C1.37581 1.143 1.34096 1.14993 1.30844 1.1634C1.27593 1.17687 1.24638 1.19661 1.2215 1.2215C1.19661 1.24638 1.17687 1.27593 1.1634 1.30844C1.14993 1.34096 1.143 1.37581 1.143 1.411V7.157C1.143 7.22808 1.17124 7.29625 1.2215 7.3465C1.27176 7.39676 1.33992 7.425 1.411 7.425H6.018C6.05319 7.425 6.08804 7.41807 6.12056 7.4046C6.15307 7.39113 6.18262 7.37139 6.2075 7.3465C6.23239 7.32162 6.25213 7.29207 6.2656 7.25956C6.27907 7.22704 6.286 7.19219 6.286 7.157V1.411C6.286 1.37581 6.27907 1.34096 6.2656 1.30844C6.25213 1.27593 6.23239 1.24638 6.2075 1.2215C6.18262 1.19661 6.15307 1.17687 6.12056 1.1634C6.08804 1.14993 6.05319 1.143 6.018 1.143H1.411Z" fill="#80C341"/>
<path d="M6.018 16.0001H1.411C1.03694 15.9996 0.678356 15.8508 0.413857 15.5863C0.149358 15.3218 0.000529079 14.9632 0 14.5891V11.1251C0.000529079 10.7511 0.149358 10.3925 0.413857 10.128C0.678356 9.86347 1.03694 9.71464 1.411 9.71411H6.018C6.39206 9.71464 6.75064 9.86347 7.01514 10.128C7.27964 10.3925 7.42847 10.7511 7.429 11.1251V14.5891C7.42847 14.9632 7.27964 15.3218 7.01514 15.5863C6.75064 15.8508 6.39206 15.9996 6.018 16.0001ZM1.411 10.8571C1.37581 10.8571 1.34096 10.864 1.30844 10.8775C1.27593 10.891 1.24638 10.9107 1.2215 10.9356C1.19661 10.9605 1.17687 10.99 1.1634 11.0226C1.14993 11.0551 1.143 11.0899 1.143 11.1251V14.5891C1.143 14.6602 1.17124 14.7284 1.2215 14.7786C1.27175 14.8289 1.33992 14.8571 1.411 14.8571H6.018C6.08908 14.8571 6.15724 14.8289 6.2075 14.7786C6.25776 14.7284 6.286 14.6602 6.286 14.5891V11.1251C6.286 11.054 6.25776 10.9859 6.2075 10.9356C6.15724 10.8853 6.08908 10.8571 6.018 10.8571H1.411Z" fill="#80C341"/>
</g>
</svg>
