<svg width="16" height="15" viewBox="0 0 16 15" fill="none" xmlns="http://www.w3.org/2000/svg">
<mask id="mask0_1_713" style="mask-type:luminance" maskUnits="userSpaceOnUse" x="-1" y="-1" width="18" height="17">
<path d="M16.001 -0.674196H-0.00195348V15.3287H16.001V-0.674196Z" fill="white"/>
</mask>
<g mask="url(#mask0_1_713)">
<path d="M8.73918 0C7.12848 0.00788738 5.5659 0.549845 4.29623 1.54097C3.02655 2.53209 2.12151 3.91639 1.72289 5.477L1.2358 4.73987C1.18935 4.66322 1.12791 4.59673 1.05516 4.54438C0.982401 4.49203 0.899831 4.45491 0.81239 4.43523C0.724948 4.41555 0.634434 4.41372 0.546268 4.42984C0.458102 4.44597 0.374098 4.47972 0.299285 4.52908C0.224471 4.57844 0.160389 4.64239 0.110874 4.7171C0.0613598 4.79181 0.0274317 4.87575 0.0111218 4.96388C-0.00518816 5.05201 -0.00354445 5.14253 0.0159545 5.23001C0.0354534 5.31749 0.0724065 5.40014 0.124601 5.473L1.58987 7.69341C1.69211 7.83618 1.84287 7.93681 2.01395 7.97646C2.18731 8.00903 2.36654 7.97319 2.51404 7.87644L4.71444 6.39617C4.79479 6.35111 4.86492 6.28986 4.9204 6.21631C4.97588 6.14276 5.0155 6.0585 5.03675 5.96886C5.05801 5.87922 5.06043 5.78614 5.04388 5.69552C5.02733 5.60489 4.99216 5.51868 4.9406 5.44234C4.88903 5.36599 4.82219 5.30117 4.7443 5.25198C4.6664 5.20279 4.57915 5.17028 4.48806 5.15653C4.39696 5.14277 4.30401 5.14806 4.21506 5.17206C4.12611 5.19607 4.04311 5.23826 3.97131 5.29597L2.97112 5.97009C3.28737 4.64065 4.04998 3.45988 5.13169 2.62482C6.21341 1.78977 7.54878 1.35094 8.91498 1.38157C10.2812 1.41221 11.5955 1.91045 12.6387 2.79316C13.6819 3.67586 14.3908 4.88963 14.6472 6.23191C14.9035 7.57419 14.6918 8.96378 14.0473 10.1688C13.4028 11.3738 12.3645 12.3213 11.1057 12.8533C9.84698 13.3852 8.44387 13.4693 7.13056 13.0916C5.81725 12.714 4.67318 11.8973 3.88929 10.778C3.84091 10.7025 3.7778 10.6376 3.70374 10.5871C3.62968 10.5366 3.54618 10.5016 3.45826 10.4841C3.37034 10.4666 3.2798 10.4671 3.19206 10.4855C3.10432 10.5038 3.02119 10.5397 2.94765 10.591C2.87411 10.6422 2.81166 10.7078 2.76406 10.7837C2.71646 10.8597 2.68468 10.9445 2.67062 11.033C2.65656 11.1215 2.66052 11.212 2.68225 11.299C2.70398 11.3859 2.74304 11.4676 2.79709 11.5391C3.68093 12.8137 4.95036 13.7711 6.41877 14.2706C7.88718 14.77 9.4771 14.7853 10.9548 14.314C12.4325 13.8427 13.72 12.9097 14.6281 11.6523C15.5361 10.3949 16.0168 8.87928 15.9995 7.32834C16.0067 5.39432 15.2462 3.53645 13.8851 2.16252C12.5239 0.78859 10.6732 0.0108491 8.73918 0Z" fill="#8C8C8C"/>
<path d="M8.67345 3.29772C8.49678 3.29772 8.32735 3.3679 8.20243 3.49283C8.07751 3.61775 8.00733 3.78718 8.00733 3.96385V7.32746C8.01147 7.50426 8.08303 7.67279 8.20736 7.79855L10.2077 9.81492C10.3338 9.93772 10.5028 10.0064 10.6788 10.0064C10.8548 10.0064 11.0238 9.93772 11.1499 9.81492C11.2118 9.75306 11.2609 9.67962 11.2943 9.59879C11.3278 9.51796 11.3451 9.43132 11.3451 9.34383C11.3451 9.25634 11.3278 9.1697 11.2943 9.08887C11.2609 9.00804 11.2118 8.9346 11.1499 8.87274L9.33957 7.05341V3.96385C9.33957 3.78718 9.26939 3.61775 9.14447 3.49283C9.01954 3.3679 8.85011 3.29772 8.67345 3.29772Z" fill="#8C8C8C"/>
</g>
</svg>
