<svg width="220" height="41" viewBox="0 0 220 41" fill="none" xmlns="http://www.w3.org/2000/svg">
<mask id="mask0_1_3582" style="mask-type:luminance" maskUnits="userSpaceOnUse" x="0" y="-10" width="220" height="61">
<path d="M220 -9.98096H0V50.019H220V-9.98096Z" fill="white"/>
</mask>
<g mask="url(#mask0_1_3582)">
<path fill-rule="evenodd" clip-rule="evenodd" d="M20.307 12.812C20.307 12.0694 20.012 11.3572 19.4869 10.8321C18.9618 10.307 18.2496 10.012 17.507 10.012H2.8C2.05739 10.012 1.3452 10.307 0.820101 10.8321C0.294999 11.3572 0 12.0694 0 12.812C0 13.5546 0.294999 14.2668 0.820101 14.7919C1.3452 15.317 2.05739 15.612 2.8 15.612H17.51C17.8777 15.612 18.2418 15.5395 18.5815 15.3988C18.9212 15.2581 19.2299 15.0519 19.4899 14.7919C19.7499 14.5319 19.9562 14.2232 20.0969 13.8835C20.2376 13.5438 20.31 13.1797 20.31 12.812H20.307Z" fill="#80C341"/>
<path d="M153.813 39.455C151.38 40.1573 148.807 40.2234 146.341 39.647C144.031 39.0863 141.925 37.8861 140.266 36.184C138.494 34.3403 137.24 32.0621 136.629 29.579C135.908 27.0753 135.832 24.4301 136.407 21.889C136.947 19.5403 138.135 17.39 139.835 15.682C141.691 13.8789 143.997 12.6072 146.512 12C148.878 11.3148 151.383 11.2678 153.773 11.864C155.997 12.4344 158.023 13.6038 159.629 15.245C161.28 16.9343 162.456 19.0291 163.038 21.318C163.142 21.7047 163.242 22.1117 163.338 22.539C163.434 22.9664 163.526 23.4133 163.613 23.88L143.713 29.211C143.975 30.1076 144.413 30.9432 145.001 31.6693C145.589 32.3954 146.315 32.9976 147.137 33.441C148.723 34.2574 150.563 34.4328 152.275 33.931C153.505 33.6466 154.622 33.0026 155.484 32.081C156.234 31.2503 156.734 30.224 156.925 29.121L163.786 27.282C163.735 29.0732 163.311 30.834 162.541 32.452C161.752 34.1242 160.602 35.6009 159.174 36.776C157.604 38.0512 155.774 38.9664 153.812 39.457L153.813 39.455ZM219.014 20H212.4C212 17.9967 210.488 16.995 207.865 16.995C206.799 16.9291 205.739 17.1964 204.832 17.76C204.509 17.964 204.241 18.2459 204.055 18.58C203.869 18.9141 203.77 19.2896 203.767 19.672C203.767 20.472 204.295 21.1094 205.352 21.584C206.71 22.1532 208.118 22.5921 209.559 22.895C211.453 23.3324 213.192 23.815 214.777 24.343C216.225 24.785 217.535 25.5946 218.577 26.693C219.597 27.9432 220.106 29.5338 220 31.144C220.055 32.7564 219.596 34.3445 218.689 35.679C217.705 37.087 216.34 38.186 214.755 38.848C212.836 39.6554 210.768 40.0479 208.687 40C206.516 40.0444 204.36 39.6446 202.349 38.825C200.641 38.127 199.138 37.0087 197.978 35.574C196.884 34.1876 196.203 32.5214 196.011 30.766H203.059C203.3 31.8534 203.932 32.8144 204.835 33.466C205.921 34.2506 207.24 34.6453 208.578 34.586C209.773 34.6861 210.964 34.3567 211.938 33.657C212.262 33.4032 212.526 33.0802 212.71 32.7115C212.894 32.3429 212.993 31.9379 213 31.526C213.038 31.0173 212.909 30.5101 212.633 30.0812C212.357 29.6523 211.949 29.325 211.47 29.149C210.086 28.6229 208.66 28.2118 207.208 27.92C206.042 27.6647 204.858 27.355 203.656 26.991C202.506 26.6491 201.398 26.182 200.35 25.598C199.383 25.0647 198.552 24.3169 197.919 23.412C197.274 22.4329 196.95 21.2777 196.99 20.106C196.978 18.944 197.23 17.7944 197.727 16.7439C198.224 15.6933 198.952 14.7692 199.858 14.041C201.771 12.4017 204.457 11.582 207.917 11.582C210.656 11.4401 213.361 12.2297 215.594 13.822C216.548 14.5711 217.342 15.5038 217.93 16.5648C218.517 17.6259 218.885 18.794 219.014 20ZM118.152 33.876H135.09V39.34H111.158V1.09302H118.152V33.876ZM173.722 39.34H166.728V12.24H172.9L173.446 16.83C174.273 15.2362 175.533 13.9085 177.082 13C178.783 12.0227 180.721 11.5314 182.682 11.58C184.138 11.4974 185.593 11.7388 186.945 12.2868C188.296 12.8348 189.508 13.6758 190.495 14.749C192.353 16.8617 193.282 19.958 193.282 24.038V39.338H186.288V24.7C186.412 22.8077 185.913 20.9269 184.867 19.345C184.332 18.7035 183.651 18.2 182.88 17.8766C182.11 17.5533 181.274 17.4197 180.441 17.487C179.532 17.4597 178.629 17.6314 177.793 17.99C176.958 18.3486 176.211 18.8855 175.605 19.563C174.265 21.185 173.592 23.2552 173.72 25.355V39.34H173.722ZM147.983 17.486C146.402 17.8819 144.995 18.7855 143.977 20.058C142.924 21.4601 142.461 23.219 142.688 24.958L155.724 21.465C155.497 20.6904 155.114 19.9705 154.598 19.35C154.082 18.7294 153.444 18.2212 152.724 17.857C151.246 17.1431 149.554 17.0107 147.983 17.486Z" fill="#80C341"/>
<path d="M59.718 39.382H53.018L53.107 35.503C52.2265 36.7584 51.1142 37.834 49.83 38.672C48.2425 39.6449 46.4002 40.1206 44.54 40.038C42.253 40.0732 40.0073 39.4267 38.089 38.181C36.1704 36.913 34.6213 35.1601 33.599 33.1C32.4697 30.8273 31.9035 28.3164 31.948 25.779C31.9012 23.25 32.4677 20.7473 33.599 18.485C34.6228 16.4406 36.1726 14.7058 38.089 13.459C40.0522 12.3185 42.2704 11.6892 44.54 11.629C46.1519 11.5847 47.76 11.8077 49.299 12.289C51.3322 12.8846 53.1592 14.0349 54.575 15.611L55.518 12.291H59.712V39.382H59.718ZM10.763 39.34H3.76904V18.85H17.484C19.9247 18.85 21.6824 18.3127 22.757 17.238C23.31 16.6522 23.738 15.96 24.0151 15.2036C24.2922 14.4472 24.4126 13.6424 24.369 12.838C24.4155 12.0253 24.2966 11.2117 24.0195 10.4463C23.7424 9.68087 23.3129 8.97964 22.757 8.385C21.6824 7.31033 19.9247 6.773 17.484 6.773H3.76904V1.093H17.921C20.5377 0.999711 23.1396 1.52385 25.516 2.623C27.4059 3.53354 28.971 5.00193 30 6.83C30.9981 8.67402 31.506 10.7434 31.475 12.84C31.4958 14.868 31.0072 16.8688 30.054 18.659C29.0396 20.4915 27.4975 21.9765 25.628 22.921C23.2325 24.0818 20.5881 24.6354 17.928 24.533H10.763V39.34ZM79.577 18.96H77.61C76.2109 18.9364 74.8198 19.1773 73.51 19.67C72.3163 20.1385 71.3228 21.0079 70.7 22.129C69.9496 23.6358 69.6014 25.311 69.689 26.992V39.34H62.694V12.24H68.923L69.579 17.321C70.533 15.6033 71.9169 14.1629 73.595 13.141C75.4043 12.0721 77.4773 11.5326 79.578 11.584L79.577 18.96ZM89.139 39.34H82.145V0H89.139V23.221L98.755 12.239H107.06L95.969 24.587L108.863 39.34H100.121L89.139 25.735V39.34ZM45.939 33.919C46.925 33.9484 47.9053 33.7605 48.8105 33.3687C49.7157 32.977 50.5236 32.3909 51.177 31.652C52.5716 30.0425 53.3004 27.962 53.215 25.834C53.3006 23.7057 52.5718 21.6248 51.177 20.015C50.5073 19.3016 49.699 18.7325 48.8015 18.3427C47.904 17.9528 46.9363 17.7505 45.9579 17.7479C44.9794 17.7454 44.0107 17.9428 43.1112 18.328C42.2117 18.7132 41.4004 19.2781 40.727 19.988C39.315 21.5782 38.5751 23.6542 38.663 25.779C38.5816 27.9194 39.3198 30.0102 40.727 31.625C41.3743 32.3664 42.1767 32.9563 43.0774 33.353C43.9782 33.7496 44.9551 33.9422 45.939 33.919Z" fill="black"/>
</g>
</svg>
