<svg width="16" height="14" viewBox="0 0 16 14" fill="none" xmlns="http://www.w3.org/2000/svg">
<path d="M2.00689 0.102488C1.90821 0.0284774 1.78615 -0.00745434 1.66311 0.00128984C1.54007 0.010034 1.42431 0.062867 1.33709 0.150089C1.24987 0.237311 1.19704 0.353068 1.18829 0.476107C1.17955 0.599147 1.21548 0.721212 1.28949 0.819893L13.9917 13.5282C14.0546 13.5911 14.1331 13.6362 14.2192 13.6589C14.3052 13.6816 14.3958 13.6811 14.4815 13.6573C14.5683 13.6348 14.6473 13.5891 14.7101 13.5251C14.7573 13.4781 14.7948 13.4222 14.8204 13.3606C14.8459 13.2991 14.8591 13.2331 14.8591 13.1664C14.8591 13.0998 14.8459 13.0338 14.8204 12.9722C14.7948 12.9107 14.7573 12.8548 14.7101 12.8077L2.00689 0.102488Z" fill="#8C8C8C"/>
<path d="M8.14877 10.0294C7.59475 10.0555 7.04341 9.93775 6.5484 9.68758C6.05339 9.43742 5.63157 9.06337 5.32399 8.60184C5.0164 8.14031 4.83353 7.60701 4.79317 7.05385C4.75281 6.50068 4.85632 5.94649 5.09365 5.4452L3.18536 3.52973C2.09322 4.41145 1.07708 5.38337 0.147657 6.43522C0.0526656 6.53927 0 6.67507 0 6.81596C0 6.95685 0.0526656 7.09265 0.147657 7.19669C2.46693 9.75886 4.51051 11.9633 7.9971 11.9633C9.01588 11.9553 10.0202 11.7211 10.9374 11.2777L9.38271 9.72299C8.99561 9.90545 8.57626 10.0096 8.14877 10.0294Z" fill="#8C8C8C"/>
<path d="M15.8516 7.17416C15.9439 7.07399 15.9965 6.94364 15.9998 6.80747C16.003 6.67129 15.9565 6.53861 15.869 6.43421C14.0007 4.16516 11.4098 1.67166 7.99086 1.67166C6.97532 1.67243 5.97329 1.90445 5.06077 2.35012L6.62266 3.91201C7.00752 3.7272 7.42595 3.6226 7.8525 3.60456C8.40693 3.57818 8.95874 3.69589 9.45414 3.94621C9.94955 4.19653 10.3717 4.57092 10.6793 5.03289C10.987 5.49487 11.1698 6.02868 11.2098 6.58229C11.2498 7.1359 11.1457 7.69043 10.9076 8.19185L12.8149 10.1012C13.9123 9.21795 14.9286 8.23838 15.8516 7.17416Z" fill="#8C8C8C"/>
<path d="M5.72009 6.99183C5.76384 7.53526 5.99957 8.04538 6.38508 8.43089C6.77058 8.81639 7.28071 9.05212 7.82414 9.09588C8.10629 9.11806 8.39009 9.08641 8.66043 9.00261L5.80925 6.15144C5.7287 6.42382 5.69849 6.70861 5.72009 6.99183Z" fill="#8C8C8C"/>
<path d="M10.2845 6.81752C10.2845 6.7714 10.2845 6.72425 10.2845 6.67813C10.0799 6.77015 9.85807 6.81765 9.63372 6.81752C9.59478 6.81752 9.55891 6.81752 9.52304 6.81752L10.1871 7.48573C10.2525 7.26904 10.2853 7.04385 10.2845 6.81752Z" fill="#8C8C8C"/>
<path d="M7.99823 5.13772C7.99772 4.93141 8.03524 4.72678 8.10891 4.53408C8.07304 4.53408 8.03717 4.53408 7.99823 4.53408C7.77402 4.53527 7.55124 4.56981 7.33719 4.63656L8.0054 5.30477C8.00233 5.24738 7.99823 5.19101 7.99823 5.13772Z" fill="#8C8C8C"/>
</svg>
