<svg width="258" height="38" viewBox="0 0 258 38" fill="none" xmlns="http://www.w3.org/2000/svg">
<path d="M253.921 37.5H4.07907C2.10557 37.5 0.5 35.9299 0.5 34V4C0.5 2.0701 2.10557 0.5 4.07907 0.5H253.921C255.894 0.5 257.5 2.0701 257.5 4V34C257.5 35.9299 255.894 37.5 253.921 37.5Z" fill="#E2E2E2"/>
<path d="M4.07907 1C2.38127 1 1 2.3458 1 4V34C1 35.6542 2.38127 37 4.07907 37H253.921C255.619 37 257 35.6542 257 34V4C257 2.3458 255.619 1 253.921 1H4.07907ZM4.07907 0H253.921C256.174 0 258 1.79087 258 4V34C258 36.2091 256.174 38 253.921 38H4.07907C1.82626 38 0 36.2091 0 34V4C0 1.79087 1.82626 0 4.07907 0Z" fill="#E2E2E2"/>
</svg>
