<svg width="28" height="24" viewBox="0 0 28 24" fill="none" xmlns="http://www.w3.org/2000/svg">
<path d="M21.293 5.65668C20.8867 4.04089 19.9527 2.60696 18.639 1.58225C17.3253 0.557544 15.7071 0.000696059 14.0411 6.52121e-07C12.375 -0.000694755 10.7563 0.554802 9.4418 1.57842C8.12725 2.60203 7.19203 4.03517 6.78441 5.65062C4.86757 5.832 3.0942 6.74458 1.83244 8.19893C0.57068 9.65328 -0.0825486 11.5377 0.00836079 13.4609C0.0992702 15.3842 0.927334 17.1986 2.32065 18.5274C3.71397 19.8562 5.56551 20.5975 7.49091 20.5972H10.2917C10.4172 20.6014 10.5423 20.5802 10.6595 20.535C10.7766 20.4898 10.8835 20.4215 10.9738 20.3342C11.064 20.2469 11.1358 20.1423 11.1848 20.0266C11.2338 19.911 11.2591 19.7867 11.2591 19.6611C11.2591 19.5355 11.2338 19.4112 11.1848 19.2956C11.1358 19.18 11.064 19.0754 10.9738 18.988C10.8835 18.9007 10.7766 18.8324 10.6595 18.7872C10.5423 18.742 10.4172 18.7209 10.2917 18.725H7.48687C5.99669 18.7294 4.56579 18.1417 3.50895 17.0911C2.45211 16.0405 1.8559 14.6131 1.85149 13.1229C1.84707 11.6327 2.43481 10.2018 3.4854 9.145C4.53599 8.08816 5.96339 7.49195 7.45357 7.48753C7.6937 7.50549 7.93195 7.43367 8.12215 7.28599C8.31235 7.1383 8.44096 6.92527 8.48305 6.68817C8.67572 5.35333 9.34294 4.13261 10.3625 3.24969C11.382 2.36677 12.6855 1.88079 14.0342 1.88079C15.3828 1.88079 16.6864 2.36677 17.7059 3.24969C18.7254 4.13261 19.3926 5.35333 19.5853 6.68817C19.6341 6.91809 19.7617 7.12375 19.9459 7.26968C20.1302 7.41562 20.3596 7.49266 20.5946 7.48753C21.3386 7.47756 22.0771 7.61549 22.7674 7.8933C23.4576 8.17112 24.0858 8.58329 24.6155 9.10589C25.1451 9.62849 25.5657 10.2511 25.8527 10.9376C26.1398 11.624 26.2876 12.3607 26.2876 13.1048C26.2876 13.8488 26.1398 14.5855 25.8527 15.2719C25.5657 15.9584 25.1451 16.581 24.6155 17.1036C24.0858 17.6262 23.4576 18.0384 22.7674 18.3162C22.0771 18.594 21.3386 18.732 20.5946 18.722H17.7857C17.5427 18.73 17.3124 18.8321 17.1434 19.0068C16.9743 19.1814 16.8798 19.415 16.8798 19.6581C16.8798 19.9012 16.9743 20.1347 17.1434 20.3094C17.3124 20.4841 17.5427 20.5862 17.7857 20.5942H20.5946C22.505 20.5726 24.335 19.8217 25.71 18.4953C27.085 17.1688 27.9012 15.367 27.9914 13.4586C28.0817 11.5502 27.4392 9.67939 26.1955 8.22906C24.9519 6.77874 23.2009 5.85851 21.3011 5.65668H21.293Z" fill="#8C8C8C"/>
<path d="M18.0594 13.7673C18.1455 13.8578 18.2489 13.9301 18.3634 13.98C18.478 14.0299 18.6013 14.0564 18.7262 14.0579C18.8511 14.0594 18.9751 14.036 19.0908 13.9889C19.2065 13.9418 19.3116 13.872 19.3999 13.7837C19.4883 13.6953 19.558 13.5902 19.6051 13.4745C19.6522 13.3588 19.6757 13.2349 19.6742 13.11C19.6727 12.985 19.6462 12.8617 19.5963 12.7472C19.5464 12.6327 19.474 12.5293 19.3836 12.4431L14.7025 7.76203C14.5268 7.58649 14.2887 7.48789 14.0404 7.48789C13.7921 7.48789 13.5539 7.58649 13.3783 7.76203L8.69718 12.4431C8.60672 12.5293 8.53441 12.6327 8.4845 12.7472C8.43459 12.8617 8.4081 12.985 8.40657 13.11C8.40505 13.2349 8.42853 13.3588 8.47563 13.4745C8.52273 13.5902 8.5925 13.6953 8.68084 13.7837C8.76917 13.872 8.87428 13.9418 8.98998 13.9889C9.10568 14.036 9.22964 14.0594 9.35455 14.0579C9.47946 14.0564 9.60281 14.0299 9.71732 13.98C9.83184 13.9301 9.93522 13.8578 10.0214 13.7673L13.1048 10.6839V22.4674C13.1127 22.7104 13.2149 22.9407 13.3896 23.1098C13.5642 23.2788 13.7978 23.3733 14.0409 23.3733C14.284 23.3733 14.5175 23.2788 14.6922 23.1098C14.8669 22.9407 14.969 22.7104 14.977 22.4674V10.6839L18.0594 13.7673Z" fill="#8C8C8C"/>
</svg>
