<svg width="25" height="25" viewBox="0 0 25 25" fill="none" xmlns="http://www.w3.org/2000/svg">
<mask id="mask0_1_1498" style="mask-type:luminance" maskUnits="userSpaceOnUse" x="-1" y="-1" width="26" height="26">
<path d="M24.9985 -0.000488291H-0.00195316V25H24.9985V-0.000488291Z" fill="white"/>
</mask>
<g mask="url(#mask0_1_1498)">
<path d="M23.0066 18.0009C23.634 18.0009 24.1426 17.4923 24.1426 16.8648C24.1426 16.2374 23.634 15.7288 23.0066 15.7288C22.3792 15.7288 21.8705 16.2374 21.8705 16.8648C21.8705 17.4923 22.3792 18.0009 23.0066 18.0009Z" fill="#80C341"/>
<path d="M20.5275 21.6609C21.1549 21.6609 21.6635 21.1522 21.6635 20.5248C21.6635 19.8974 21.1549 19.3888 20.5275 19.3888C19.9001 19.3888 19.3915 19.8974 19.3915 20.5248C19.3915 21.1522 19.9001 21.6609 20.5275 21.6609Z" fill="#80C341"/>
<path d="M23.8606 13.6407C24.488 13.6407 24.9966 13.1321 24.9966 12.5047C24.9966 11.8772 24.488 11.3686 23.8606 11.3686C23.2332 11.3686 22.7246 11.8772 22.7246 12.5047C22.7246 13.1321 23.2332 13.6407 23.8606 13.6407Z" fill="#80C341"/>
<path d="M16.8475 24.1441C17.4749 24.1441 17.9835 23.6354 17.9835 23.008C17.9835 22.3806 17.4749 21.872 16.8475 21.872C16.2201 21.872 15.7115 22.3806 15.7115 23.008C15.7115 23.6354 16.2201 24.1441 16.8475 24.1441Z" fill="#80C341"/>
<path d="M12.5003 22.7279C10.8638 22.7297 9.25064 22.3388 7.7965 21.5878C6.34237 20.8369 5.08967 19.748 4.14365 18.4125C3.19763 17.0771 2.58592 15.5341 2.3599 13.9132C2.13388 12.2923 2.30016 10.6408 2.84476 9.09749C3.38935 7.55417 4.29637 6.16409 5.48962 5.04402C6.68287 3.92394 8.12749 3.10658 9.70213 2.66061C11.2768 2.21463 12.9355 2.15306 14.5388 2.48106C16.1422 2.80906 17.6435 3.51707 18.9165 4.54559H17.0464C16.745 4.54559 16.4559 4.66533 16.2428 4.87847C16.0296 5.09161 15.9099 5.38069 15.9099 5.68211C15.9099 5.98354 16.0296 6.27261 16.2428 6.48575C16.4559 6.69889 16.745 6.81863 17.0464 6.81863H21.5915C21.8928 6.81863 22.1818 6.69895 22.3948 6.4859C22.6079 6.27285 22.7275 5.9839 22.7275 5.68261V1.13652C22.7275 0.835098 22.6078 0.546019 22.3947 0.33288C22.1815 0.11974 21.8924 0 21.591 0C21.2896 0 21.0005 0.11974 20.7874 0.33288C20.5742 0.546019 20.4545 0.835098 20.4545 1.13652V2.87656C18.9092 1.59921 17.0792 0.712497 15.119 0.291313C13.1588 -0.129871 11.1261 -0.0731575 9.19248 0.456663C7.25885 0.986484 5.48112 1.97385 4.00943 3.33537C2.53774 4.6969 1.41531 6.39259 0.736938 8.27924C0.0585668 10.1659 -0.155821 12.1881 0.111881 14.175C0.379582 16.162 1.12151 18.0553 2.27501 19.6952C3.4285 21.335 4.95968 22.6732 6.73924 23.5967C8.51879 24.5201 10.4944 25.0018 12.4993 25.001C12.8008 25.001 13.0898 24.8812 13.303 24.6681C13.5161 24.455 13.6359 24.1659 13.6359 23.8645C13.6359 23.563 13.5161 23.274 13.303 23.0608C13.0898 22.8477 12.8018 22.7279 12.5003 22.7279Z" fill="#80C341"/>
<path d="M16.7133 16.7127C16.8189 16.6073 16.9026 16.482 16.9598 16.3441C17.0169 16.2062 17.0463 16.0585 17.0463 15.9092C17.0463 15.76 17.0169 15.6122 16.9598 15.4743C16.9026 15.3365 16.8189 15.2112 16.7133 15.1057L13.6373 12.0297V5.68153C13.6373 5.38011 13.5175 5.09103 13.3044 4.87789C13.0913 4.66475 12.8022 4.54501 12.5008 4.54501C12.1993 4.54501 11.9103 4.66475 11.6971 4.87789C11.484 5.09103 11.3642 5.38011 11.3642 5.68153V12.4997C11.3652 12.7999 11.4849 13.0875 11.6972 13.2997L15.1063 16.7087C15.2118 16.8143 15.3371 16.898 15.4749 16.9552C15.6128 17.0123 15.7606 17.0417 15.9098 17.0417C16.0591 17.0417 16.2068 17.0123 16.3447 16.9552C16.4826 16.898 16.6078 16.8143 16.7133 16.7087V16.7127Z" fill="#80C341"/>
</g>
</svg>
