<svg width="221" height="41" viewBox="0 0 221 41" fill="none" xmlns="http://www.w3.org/2000/svg">
<path fill-rule="evenodd" clip-rule="evenodd" d="M20.398 12.8694C20.398 12.1235 20.1017 11.4081 19.5743 10.8806C19.0468 10.3532 18.3314 10.0568 17.5855 10.0568H2.81255C2.06662 10.0568 1.35123 10.3532 0.823778 10.8806C0.296322 11.4081 0 12.1235 0 12.8694C0 13.6153 0.296322 14.3307 0.823778 14.8582C1.35123 15.3856 2.06662 15.682 2.81255 15.682H17.5885C17.9578 15.682 18.3236 15.6092 18.6648 15.4679C19.0061 15.3265 19.3161 15.1193 19.5773 14.8582C19.8384 14.597 20.0456 14.287 20.187 13.9457C20.3283 13.6045 20.401 13.2387 20.401 12.8694H20.398Z" fill="#80C341"/>
<path d="M154.503 39.6319C152.058 40.3373 149.474 40.4037 146.997 39.8248C144.677 39.2616 142.562 38.056 140.895 36.3462C139.115 34.4943 137.855 32.2058 137.241 29.7116C136.518 27.1967 136.441 24.5396 137.018 21.9871C137.561 19.6279 138.754 17.4679 140.462 15.7523C142.326 13.9411 144.642 12.6637 147.169 12.0538C149.545 11.3655 152.062 11.3184 154.462 11.9172C156.697 12.4902 158.731 13.6648 160.345 15.3134C162.003 17.0102 163.184 19.1144 163.769 21.4136C163.873 21.802 163.974 22.2108 164.07 22.6401C164.167 23.0693 164.259 23.5183 164.346 23.9871L144.357 29.342C144.621 30.2426 145.061 31.0819 145.651 31.8113C146.241 32.5406 146.971 33.1456 147.797 33.5909C149.39 34.411 151.238 34.5872 152.958 34.0831C154.193 33.7974 155.315 33.1505 156.181 32.2248C156.935 31.3904 157.437 30.3595 157.628 29.2516L164.52 27.4043C164.469 29.2035 164.043 30.9722 163.27 32.5975C162.477 34.2772 161.322 35.7605 159.888 36.9409C158.311 38.2218 156.472 39.1411 154.502 39.6339L154.503 39.6319ZM219.996 20.0897H213.352C212.95 18.0774 211.432 17.0712 208.797 17.0712C207.726 17.005 206.661 17.2735 205.75 17.8396C205.425 18.0445 205.157 18.3277 204.97 18.6633C204.783 18.9989 204.684 19.3761 204.68 19.7602C204.68 20.5638 205.211 21.204 206.273 21.6808C207.636 22.2525 209.051 22.6934 210.498 22.9977C212.401 23.437 214.148 23.9218 215.74 24.4521C217.195 24.8961 218.51 25.7094 219.557 26.8127C220.582 28.0685 221.093 29.6662 220.986 31.2836C221.041 32.9033 220.58 34.4985 219.669 35.839C218.681 37.2532 217.31 38.3572 215.718 39.0222C213.79 39.8331 211.713 40.2275 209.623 40.1793C207.442 40.2239 205.276 39.8223 203.256 38.9991C201.541 38.298 200.03 37.1747 198.866 35.7335C197.767 34.3408 197.082 32.6672 196.89 30.9039H203.969C204.211 31.9962 204.846 32.9615 205.753 33.616C206.844 34.4041 208.169 34.8006 209.513 34.7411C210.713 34.8416 211.91 34.5107 212.888 33.8079C213.214 33.553 213.479 33.2285 213.663 32.8582C213.848 32.4879 213.948 32.081 213.955 31.6673C213.993 31.1564 213.864 30.6469 213.586 30.2161C213.309 29.7852 212.899 29.4565 212.418 29.2797C211.027 28.7512 209.595 28.3383 208.137 28.0452C206.966 27.7887 205.776 27.4777 204.569 27.112C203.414 26.7686 202.301 26.2993 201.248 25.7128C200.277 25.1771 199.442 24.4259 198.806 23.517C198.159 22.5335 197.833 21.373 197.873 20.1962C197.861 19.0289 198.114 17.8742 198.613 16.8189C199.112 15.7637 199.844 14.8354 200.754 14.104C202.675 12.4573 205.374 11.6339 208.849 11.6339C211.6 11.4914 214.318 12.2845 216.56 13.884C217.519 14.6365 218.316 15.5733 218.907 16.6391C219.497 17.705 219.866 18.8782 219.996 20.0897ZM118.682 34.0279H135.696V39.5164H111.656V1.09792H118.682V34.0279ZM174.501 39.5164H167.475V12.2949H173.675L174.224 16.9055C175.054 15.3045 176.32 13.9709 177.876 13.0583C179.585 12.0766 181.531 11.5831 183.501 11.6319C184.963 11.549 186.425 11.7914 187.783 12.3419C189.14 12.8923 190.358 13.7371 191.349 14.8151C193.215 16.9373 194.148 20.0475 194.148 24.1458V39.5144H187.123V24.8107C187.248 22.91 186.746 21.0207 185.696 19.4317C185.158 18.7874 184.474 18.2815 183.7 17.9568C182.927 17.632 182.086 17.4978 181.25 17.5654C180.337 17.538 179.429 17.7104 178.59 18.0706C177.751 18.4308 177.001 18.9701 176.392 19.6507C175.047 21.28 174.37 23.3595 174.499 25.4687V39.5164H174.501ZM148.646 17.5644C147.059 17.9621 145.645 18.8697 144.622 20.1479C143.564 21.5563 143.099 23.3231 143.328 25.0699L156.422 21.5612C156.194 20.7832 155.809 20.0601 155.291 19.4367C154.773 18.8133 154.132 18.3029 153.409 17.9371C151.924 17.22 150.224 17.0869 148.646 17.5644Z" fill="#80C341"/>
<path d="M59.9858 39.5586H53.2557L53.3451 35.6622C52.4606 36.9232 51.3434 38.0036 50.0534 38.8454C48.4587 39.8226 46.6082 40.3005 44.7397 40.2175C42.4425 40.2528 40.1867 39.6035 38.2598 38.3522C36.3325 37.0785 34.7765 35.3177 33.7497 33.2484C32.6153 30.9655 32.0465 28.4433 32.0913 25.8946C32.0442 23.3542 32.6133 20.8403 33.7497 18.5679C34.778 16.5143 36.3347 14.7718 38.2598 13.5193C40.2318 12.3737 42.4599 11.7416 44.7397 11.6811C46.3588 11.6366 47.9742 11.8606 49.5201 12.3441C51.5624 12.9423 53.3975 14.0978 54.8197 15.681L55.7669 12.3461H59.9797V39.5586H59.9858ZM10.8113 39.5164H3.78594V18.9345H17.5624C20.014 18.9345 21.7796 18.3948 22.8591 17.3153C23.4145 16.7268 23.8444 16.0316 24.1228 15.2718C24.4011 14.512 24.5221 13.7035 24.4783 12.8956C24.5249 12.0792 24.4055 11.2619 24.1272 10.4931C23.8488 9.72427 23.4174 9.0199 22.8591 8.42259C21.7796 7.34311 20.014 6.80336 17.5624 6.80336H3.78594V1.0979H18.0014C20.6298 1.00419 23.2433 1.53069 25.6304 2.63476C27.5288 3.54938 29.1009 5.02435 30.1345 6.86062C31.1371 8.7129 31.6473 10.7916 31.6161 12.8976C31.637 14.9347 31.1462 16.9444 30.1888 18.7426C29.1698 20.5833 27.6208 22.075 25.7429 23.0238C23.3366 24.1897 20.6804 24.7458 18.0084 24.643H10.8113V39.5164ZM79.9338 19.045H77.958C76.5525 19.0213 75.1552 19.2633 73.8396 19.7582C72.6405 20.2288 71.6425 21.1021 71.017 22.2282C70.2632 23.7418 69.9134 25.4244 70.0015 27.113V39.5164H62.9751V12.2949H69.232L69.891 17.3986C70.8492 15.6733 72.2393 14.2264 73.925 13.1999C75.7423 12.1262 77.8246 11.5843 79.9348 11.6359L79.9338 19.045ZM89.5387 39.5164H82.5133V0H89.5387V23.3251L99.1978 12.2939H107.54L96.3993 24.6972L109.351 39.5164H100.57L89.5387 25.8504V39.5164ZM46.145 34.0711C47.1353 34.1006 48.12 33.9119 49.0293 33.5183C49.9386 33.1248 50.7501 32.5361 51.4065 31.7939C52.8073 30.1772 53.5394 28.0873 53.4536 25.9498C53.5395 23.812 52.8075 21.7218 51.4065 20.1047C50.7338 19.3881 49.9218 18.8165 49.0203 18.4249C48.1188 18.0333 47.1468 17.83 46.1639 17.8275C45.181 17.825 44.208 18.0232 43.3045 18.4102C42.401 18.7971 41.586 19.3645 40.9096 20.0776C39.4912 21.6749 38.748 23.7602 38.8364 25.8946C38.7545 28.0446 39.496 30.1448 40.9096 31.7668C41.5598 32.5115 42.3658 33.1041 43.2706 33.5025C44.1753 33.9009 45.1567 34.0943 46.145 34.0711Z" fill="black"/>
</svg>
