<svg width="16" height="16" viewBox="0 0 16 16" fill="none" xmlns="http://www.w3.org/2000/svg">
<mask id="mask0_1_697" style="mask-type:luminance" maskUnits="userSpaceOnUse" x="0" y="0" width="16" height="16">
<path d="M16 0H0V16H16V0Z" fill="white"/>
</mask>
<g mask="url(#mask0_1_697)">
<path d="M14.5893 16H9.98229C9.60823 15.9994 9.24964 15.8506 8.98515 15.5861C8.72065 15.3216 8.57182 14.963 8.57129 14.589V8.83898C8.57182 8.46492 8.72065 8.10633 8.98515 7.84184C9.24964 7.57734 9.60823 7.42851 9.98229 7.42798H14.5893C14.9633 7.42851 15.3219 7.57734 15.5864 7.84184C15.8509 8.10633 15.9998 8.46492 16.0003 8.83898V14.589C15.9998 14.963 15.8509 15.3216 15.5864 15.5861C15.3219 15.8506 14.9633 15.9994 14.5893 16ZM9.98229 8.57098C9.91121 8.57098 9.84304 8.59921 9.79278 8.64947C9.74252 8.69973 9.71429 8.7679 9.71429 8.83898V14.589C9.71429 14.6601 9.74252 14.7282 9.79278 14.7785C9.84304 14.8287 9.91121 14.857 9.98229 14.857H14.5893C14.6604 14.857 14.7285 14.8287 14.7788 14.7785C14.8291 14.7282 14.8573 14.6601 14.8573 14.589V8.83898C14.8573 8.7679 14.8291 8.69973 14.7788 8.64947C14.7285 8.59921 14.6604 8.57098 14.5893 8.57098H9.98229Z" fill="#8C8C8C"/>
<path d="M14.5893 6.286H9.98229C9.60823 6.28547 9.24964 6.13664 8.98515 5.87214C8.72065 5.60764 8.57182 5.24906 8.57129 4.875V1.411C8.57182 1.03694 8.72065 0.678356 8.98515 0.413857C9.24964 0.149358 9.60823 0.000529079 9.98229 0H14.5893C14.9633 0.000529079 15.3219 0.149358 15.5864 0.413857C15.8509 0.678356 15.9998 1.03694 16.0003 1.411V4.875C15.9998 5.24906 15.8509 5.60764 15.5864 5.87214C15.3219 6.13664 14.9633 6.28547 14.5893 6.286ZM9.98229 1.143C9.91121 1.143 9.84304 1.17124 9.79278 1.2215C9.74252 1.27175 9.71429 1.33992 9.71429 1.411V4.875C9.71429 4.94608 9.74252 5.01425 9.79278 5.0645C9.84304 5.11476 9.91121 5.143 9.98229 5.143H14.5893C14.6604 5.143 14.7285 5.11476 14.7788 5.0645C14.8291 5.01425 14.8573 4.94608 14.8573 4.875V1.411C14.8573 1.37581 14.8504 1.34096 14.8369 1.30844C14.8234 1.27593 14.8037 1.24638 14.7788 1.2215C14.7539 1.19661 14.7244 1.17687 14.6918 1.1634C14.6593 1.14993 14.6245 1.143 14.5893 1.143H9.98229Z" fill="#8C8C8C"/>
<path d="M6.018 8.571H1.411C1.03642 8.57047 0.677383 8.42123 0.412798 8.15608C0.148212 7.89093 -0.000265114 7.53158 3.5537e-07 7.157V1.411C0.000529434 1.03694 0.149358 0.678356 0.413857 0.413857C0.678356 0.149358 1.03694 0.000529079 1.411 0H6.018C6.39188 0.000793439 6.75021 0.149738 7.0145 0.414209C7.27878 0.67868 7.42747 1.03711 7.428 1.411V7.157C7.42827 7.5314 7.27993 7.89061 7.01556 8.15573C6.75119 8.42085 6.3924 8.57021 6.018 8.571ZM1.411 1.143C1.37581 1.143 1.34096 1.14993 1.30844 1.1634C1.27593 1.17687 1.24638 1.19661 1.2215 1.2215C1.19661 1.24638 1.17687 1.27593 1.1634 1.30844C1.14993 1.34096 1.143 1.37581 1.143 1.411V7.157C1.143 7.22808 1.17124 7.29625 1.2215 7.3465C1.27176 7.39676 1.33992 7.425 1.411 7.425H6.018C6.05319 7.425 6.08804 7.41807 6.12056 7.4046C6.15307 7.39113 6.18262 7.37139 6.2075 7.3465C6.23239 7.32162 6.25213 7.29207 6.2656 7.25956C6.27907 7.22704 6.286 7.19219 6.286 7.157V1.411C6.286 1.37581 6.27907 1.34096 6.2656 1.30844C6.25213 1.27593 6.23239 1.24638 6.2075 1.2215C6.18262 1.19661 6.15307 1.17687 6.12056 1.1634C6.08804 1.14993 6.05319 1.143 6.018 1.143H1.411Z" fill="#8C8C8C"/>
<path d="M6.018 16.0001H1.411C1.03694 15.9996 0.678356 15.8508 0.413857 15.5863C0.149358 15.3218 0.000529079 14.9632 0 14.5891V11.1251C0.000529079 10.7511 0.149358 10.3925 0.413857 10.128C0.678356 9.86347 1.03694 9.71464 1.411 9.71411H6.018C6.39206 9.71464 6.75064 9.86347 7.01514 10.128C7.27964 10.3925 7.42847 10.7511 7.429 11.1251V14.5891C7.42847 14.9632 7.27964 15.3218 7.01514 15.5863C6.75064 15.8508 6.39206 15.9996 6.018 16.0001ZM1.411 10.8571C1.37581 10.8571 1.34096 10.864 1.30844 10.8775C1.27593 10.891 1.24638 10.9107 1.2215 10.9356C1.19661 10.9605 1.17687 10.99 1.1634 11.0226C1.14993 11.0551 1.143 11.0899 1.143 11.1251V14.5891C1.143 14.6602 1.17124 14.7284 1.2215 14.7786C1.27175 14.8289 1.33992 14.8571 1.411 14.8571H6.018C6.08908 14.8571 6.15724 14.8289 6.2075 14.7786C6.25776 14.7284 6.286 14.6602 6.286 14.5891V11.1251C6.286 11.054 6.25776 10.9859 6.2075 10.9356C6.15724 10.8853 6.08908 10.8571 6.018 10.8571H1.411Z" fill="#8C8C8C"/>
</g>
</svg>
