<svg width="88" height="38" viewBox="0 0 88 38" fill="none" xmlns="http://www.w3.org/2000/svg">
<path d="M4 0H88V38H4C2.93913 38 1.92172 37.5786 1.17157 36.8284C0.421427 36.0783 0 35.0609 0 34V4C0 2.93913 0.421427 1.92172 1.17157 1.17157C1.92172 0.421427 2.93913 0 4 0Z" fill="white"/>
<path d="M4 0.5H87.5V37.5H4C3.07174 37.5 2.1815 37.1312 1.52513 36.4749C0.868749 35.8185 0.5 34.9283 0.5 34V4C0.5 3.07174 0.868749 2.1815 1.52513 1.52513C2.1815 0.868749 3.07174 0.5 4 0.5Z" stroke="#E2E2E2"/>
</svg>
