<svg width="29" height="29" viewBox="0 0 29 29" fill="none" xmlns="http://www.w3.org/2000/svg">
<path d="M28.9998 14.4999C28.9998 17.3677 28.1494 20.171 26.5562 22.5555C24.963 24.94 22.6985 26.7985 20.049 27.896C17.3996 28.9935 14.4842 29.2807 11.6715 28.7213C8.85881 28.1619 6.27517 26.781 4.24728 24.7532C2.2194 22.7255 0.838335 20.1419 0.27874 17.3293C-0.280855 14.5167 0.00614877 11.6013 1.10346 8.95172C2.20077 6.3022 4.0591 4.03755 6.44347 2.44416C8.82783 0.850771 11.6311 0.000198153 14.4989 3.46049e-08C16.4031 -0.000131519 18.2888 0.374822 20.0481 1.10345C21.8074 1.83208 23.406 2.90012 24.7525 4.24657C26.0991 5.59302 27.1672 7.19152 27.896 8.9508C28.6247 10.7101 28.9998 12.5957 28.9998 14.4999Z" fill="#80C341"/>
</svg>
