<svg width="16" height="15" viewBox="0 0 16 15" fill="none" xmlns="http://www.w3.org/2000/svg">
<mask id="mask0_1_2272" style="mask-type:luminance" maskUnits="userSpaceOnUse" x="-1" y="-1" width="17" height="17">
<path d="M16 -0.714199H-0.00195336V15.2878H16V-0.714199Z" fill="white"/>
</mask>
<g mask="url(#mask0_1_2272)">
<path d="M2.29834 14.5708H2.28634C1.88774 14.5709 1.4961 14.4664 1.15065 14.2675C0.80521 14.0686 0.518102 13.7824 0.318101 13.4376L0.3121 13.4266C0.107729 13.0778 0 12.6808 0 12.2765C0 11.8722 0.107729 11.4752 0.3121 11.1264L0.3061 11.1374L6.0068 1.16514C6.20388 0.812978 6.491 0.519511 6.83877 0.314783C7.18655 0.110055 7.58248 0.00141998 7.98604 0L8.01304 0C8.41442 0.000113005 8.80861 0.106496 9.15555 0.308334C9.50249 0.510173 9.7898 0.800271 9.98828 1.14914L9.99928 1.16014L15.7 11.1324C15.9022 11.4824 16.0075 11.8801 16.0051 12.2844C16.0026 12.6887 15.8925 13.085 15.686 13.4326L15.692 13.4226C15.4928 13.7701 15.2055 14.0588 14.859 14.2597C14.5125 14.4606 14.1192 14.5665 13.7187 14.5668H2.29834V14.5708ZM6.97391 1.71221L1.27322 11.6844C1.16877 11.8647 1.11435 12.0696 1.11558 12.278C1.11681 12.4863 1.17365 12.6905 1.28022 12.8696V12.8646C1.3826 13.0431 1.53027 13.1915 1.70833 13.2948C1.88638 13.398 2.08852 13.4525 2.29434 13.4526H13.7067C13.9115 13.4528 14.1127 13.399 14.2902 13.2969C14.4676 13.1947 14.6151 13.0477 14.7179 12.8706V12.8646C14.8234 12.6849 14.879 12.4803 14.879 12.272C14.879 12.0637 14.8234 11.8591 14.7179 11.6794V11.6844L9.01716 1.71221C8.91606 1.53076 8.76845 1.37953 8.5895 1.27406C8.41056 1.16859 8.20675 1.1127 7.99904 1.11214H7.99204C7.78581 1.11213 7.58325 1.16672 7.40495 1.27036C7.22665 1.374 7.07897 1.523 6.97691 1.70221V1.70821L6.97391 1.71221ZM7.25495 10.5433C7.25477 10.3469 7.33246 10.1584 7.47097 10.0192C7.53956 9.94835 7.62158 9.89185 7.71225 9.85305C7.80292 9.81424 7.90042 9.79389 7.99904 9.7932C8.14599 9.793 8.28971 9.83633 8.41207 9.91771C8.53444 9.99909 8.62996 10.1149 8.68661 10.2505C8.74325 10.3861 8.75848 10.5354 8.73036 10.6796C8.70225 10.8239 8.63205 10.9566 8.52863 11.061C8.4252 11.1654 8.29318 11.2368 8.14921 11.2663C8.00525 11.2957 7.85578 11.2819 7.71965 11.2265C7.58353 11.1712 7.46685 11.0767 7.38433 10.9551C7.3018 10.8335 7.25613 10.6902 7.25495 10.5433ZM7.44097 8.11899V5.33565C7.44097 5.18764 7.49977 5.0457 7.60442 4.94104C7.70908 4.83638 7.85103 4.77758 7.99904 4.77758C8.14705 4.77758 8.28899 4.83638 8.39365 4.94104C8.49831 5.0457 8.55711 5.18764 8.55711 5.33565V8.11899C8.55711 8.267 8.49831 8.40895 8.39365 8.5136C8.28899 8.61826 8.14705 8.67706 7.99904 8.67706C7.8512 8.67706 7.70941 8.6184 7.60478 8.51396C7.50015 8.40952 7.44124 8.26783 7.44097 8.11999V8.11899Z" fill="#8C8C8C"/>
</g>
</svg>
