<svg width="7" height="4" viewBox="0 0 7 4" fill="none" xmlns="http://www.w3.org/2000/svg">
<path fill-rule="evenodd" clip-rule="evenodd" d="M3.41624 2.30508L5.499 0.222328C5.64861 0.0779591 5.84895 -0.00187069 6.05685 3.32922e-05C6.26475 0.00193728 6.46359 0.0854226 6.61054 0.232508C6.75748 0.379593 6.84078 0.578511 6.84249 0.786415C6.8442 0.99432 6.76418 1.19458 6.61967 1.34406L4.35084 3.61289C4.22812 3.73564 4.08242 3.83302 3.92206 3.89945C3.7617 3.96589 3.58982 4.00008 3.41624 4.00008C3.24266 4.00008 3.07079 3.96589 2.91043 3.89945C2.75007 3.83302 2.60437 3.73564 2.48164 3.61289L0.212814 1.34406C0.0727511 1.19374 -0.0035009 0.994935 0.000123534 0.789513C0.00374797 0.58409 0.086966 0.388094 0.232244 0.242816C0.377522 0.0975381 0.573518 0.0143211 0.778941 0.0106966C0.984363 0.00707221 1.18317 0.0833222 1.33348 0.223385L3.41624 2.30508Z" fill="white"/>
</svg>
